<svg xmlns="http://www.w3.org/2000/svg" version="1.1" xmlns:xlink="http://www.w3.org/1999/xlink" xmlns:svgjs="http://svgjs.dev/svgjs" width="1500" height="1500" viewBox="0 0 1500 1500"><rect width="1500" height="1500" fill="#000000"></rect><g transform="matrix(0.6666666666666666,0,0,0.6666666666666666,248.44253788424248,189.33333333333348)"><svg viewBox="0 0 321 360" data-background-color="#ffffff" preserveAspectRatio="xMidYMid meet" height="1682" width="1500" xmlns="http://www.w3.org/2000/svg" xmlns:xlink="http://www.w3.org/1999/xlink"><g id="tight-bounds" transform="matrix(1,0,0,1,0.5000546608418972,0)"><svg viewBox="0 0 320 360" height="360" width="320"><g><svg></svg></g><g><svg viewBox="0 0 320 360" height="360" width="320"><g><path transform="translate(-119.39272,-98.31927) scale(5.58313,5.58313)" d="M36.7 23.5c0-0.2 0.1-0.4 0.3-0.4 0.2 0 0.4 0.1 0.4 0.4 0.1 0 0.3 0 0.4-0.1 0.4 0 0.8-0.1 1.1 0 0.3 0.1 0.5 0.1 0.8 0.2 0.3 0.1 0.5 0 0.7-0.1 0.4-0.1 0.7-0.3 1.1-0.4 0.2-0.1 0.3-0.1 0.5-0.1 0.2-0.1 0.4-0.1 0.7-0.2 0.5-0.1 1-0.2 1.4-0.4 0.4-0.2 0.8-0.2 1.2-0.3 0.2 0 0.3-0.1 0.5-0.2 0.1 0 0.1-0.1 0.2-0.2 0.2-0.1 0.3-0.2 0.5-0.1 0.1 0.1 0.3 0.1 0.4 0h0.1c0.6 0 1.2-0.1 1.9 0 0.1 0 0.2 0 0.2 0 0.3-0.2 0.7-0.2 1.1-0.2 0.1 0 0.3 0 0.4 0h0.1c0.4 0 0.8 0 1.1 0.1 0.3 0 0.5 0.1 0.8 0.2 0.3 0 0.5 0 0.8 0.1 0.2 0 0.4 0 0.6 0 0.1 0 0.2 0 0.2 0 0.4 0.1 0.8 0.1 1.2 0.1 0.3 0.1 0.6 0.2 1 0.2 0.1 0 0.2 0 0.3 0 0.1 0 0.2 0.1 0.3 0.1l0.1 0.1c0.4 0 0.7 0.2 1.1 0.2 0.1 0 0.3 0 0.4 0.1 0.3 0.2 0.7 0.3 1.1 0.3 0.2 0 0.3 0.1 0.4 0.2 0.3 0.1 0.5 0.2 0.8 0.3 0.2 0.1 0.4 0 0.6 0.1 0.3 0.1 0.7 0.2 1 0.5 0.2 0.2 0.4 0.2 0.7 0.4 0.1 0 0.2 0.1 0.3 0.2 0.3 0.2 0.6 0.4 0.9 0.5 0.1 0 0.2 0.1 0.3 0.1 0.3 0.2 0.6 0.5 1 0.7 0.2 0.1 0.3 0.2 0.5 0.3h0.1c0.3 0.3 0.7 0.5 1 0.8 0.3 0.3 0.5 0.5 0.9 0.7 0 0 0 0 0 0.1 0.1 0.2 0.2 0.3 0.4 0.4 0.2 0.1 0.3 0.2 0.4 0.3 0.3 0.2 0.6 0.4 0.8 0.6 0.1 0.1 0.2 0.2 0.4 0.4 0.1 0.1 0.2 0.2 0.3 0.2 0.4 0.1 0.6 0.4 0.9 0.7 0.2 0.2 0.5 0.5 0.7 0.7 0.1 0.1 0.2 0.3 0.3 0.5 0.2 0.6 0.5 1.2 0.8 1.7 0 0 0 0.1 0.1 0.2v0.1c0.2 0.2 0.3 0.5 0.5 0.7 0.1 0.1 0.1 0.2 0.2 0.3 0.2 0.3 0.3 0.7 0.5 1 0.3 0.5 0.5 1 0.7 1.5v0.1c0.1 0.2 0.2 0.4 0.3 0.7 0 0.2 0.2 0.4 0.3 0.7 0.1 0.5 0.4 1 0.5 1.6 0 0.1 0.1 0.2 0.1 0.4 0.1 0.3 0.2 0.6 0.3 0.9 0 0.1 0.1 0.2 0.2 0.3 0.2 0.2 0.2 0.4 0.2 0.6-0.1 0.4 0 0.8 0.1 1.2 0 0.1 0 0.2 0 0.4 0.1 0.4 0.2 0.9 0.2 1.3 0 0.1 0 0.3 0 0.4 0 0.3 0.1 0.6 0.3 0.9 0 0.1 0.1 0.1 0.1 0.1 0.1 0.1 0.2 0.3 0.3 0.4 0.1 0.1 0.1 0.1 0.2 0.2 0.2 0.2 0.3 0.4 0.3 0.7 0 0.1-0.1 0.3-0.1 0.4 0 0.1 0 0.3 0.1 0.4 0.1 0.1 0.1 0.2 0.1 0.3 0 0.1-0.1 0.2-0.2 0.2v0c-0.1 0.3-0.5 0.4-0.6 0.7-0.1 0.4-0.2 0.8-0.3 1.2-0.1 0.3-0.1 0.5-0.1 0.8 0 0.3-0.1 0.5-0.1 0.8-0.1 0.4-0.2 0.8-0.3 1.2 0 0.2-0.1 0.4-0.1 0.6 0.1 0.1 0.2 0.2 0.3 0.2 0.2 0.2 0.4 0.4 0.6 0.6 0.1 0.1 0.1 0.2 0 0.2-0.1 0.1-0.2 0.1-0.3 0.1-0.1-0.1-0.3-0.2-0.4-0.2-0.1-0.1-0.3-0.2-0.5-0.1 0 0.2-0.1 0.4-0.1 0.5-0.1 0.2-0.2 0.5-0.2 0.7-0.1 0.4-0.3 0.7-0.4 1.1-0.2 0.5-0.4 0.9-0.6 1.3-0.1 0.2-0.2 0.4-0.3 0.6v0c0 0.3-0.3 0.6-0.4 0.9-0.2 0.4-0.4 0.8-0.6 1.3-0.1 0.2-0.2 0.4-0.3 0.5-0.2 0.5-0.4 0.9-0.7 1.3-0.2 0.3-0.4 0.5-0.6 0.6-0.2 0.2-0.4 0.4-0.6 0.6-0.1 0.1-0.2 0.2-0.3 0.3-0.1 0.1-0.1 0.1-0.2 0.2-0.2 0.3-0.5 0.5-0.7 0.8-0.2 0.2-0.3 0.4-0.6 0.6-0.2 0.2-0.4 0.5-0.7 0.6-0.1 0.1-0.2 0.3-0.3 0.4-0.1 0.1-0.2 0.3-0.3 0.4 0 0.2 0.1 0.4 0.1 0.5 0 0.3-0.3 0.4-0.5 0.2-0.3-0.2-0.3-0.2-0.6 0-0.3 0.2-0.6 0.5-1 0.6-0.1 0-0.1 0.1-0.2 0.1-0.2 0.1-0.3 0.3-0.5 0.4-0.2 0.2-0.5 0.3-0.7 0.5-0.1 0.1-0.2 0.1-0.3 0.2-0.3 0.2-0.6 0.3-0.9 0.6-0.1 0.1-0.2 0.1-0.3 0.2 0 0.1 0 0.1 0 0.2 0 0.2-0.2 0.4-0.5 0.3-0.3-0.1-0.5 0-0.8 0-0.3 0.1-0.6 0.3-0.9 0.4-0.1 0-0.2 0.1-0.3 0.2-0.3 0.2-0.6 0.3-0.9 0.4-0.2 0-0.4 0.2-0.6 0.2-0.1 0-0.2 0.1-0.3 0.1h-0.1c-0.4 0.3-0.8 0.5-1.2 0.8-0.1 0-0.1 0.1-0.2 0.2-0.1 0.2-0.2 0.3-0.4 0.3-0.5 0-0.7 0.4-0.6 0.8 0 0.1 0.1 0.2 0.1 0.3 0.1 0.2 0 0.4-0.1 0.5-0.1 0.1-0.4 0.1-0.5-0.1-0.2-0.2-0.3-0.4-0.4-0.7-0.1-0.2-0.3-0.4-0.5-0.5-0.2-0.1-0.4-0.1-0.6 0-0.1 0-0.1 0.1-0.2 0.1-0.2 0.2-0.5 0.3-0.8 0.2-0.1 0-0.3 0-0.3 0.1-0.1 0.1-0.1 0.3 0 0.4 0.2 0.2 0.1 0.4 0.1 0.7 0 0.4-0.3 0.6-0.7 0.4-0.1-0.1-0.2-0.1-0.3-0.2-0.1 0-0.1-0.1-0.1-0.2-0.1-0.1-0.1-0.3-0.2-0.5-0.2 0.1-0.4 0.1-0.6 0.2-0.1 0-0.2 0.1-0.3 0.1-0.3 0-0.4 0-0.5-0.3-0.1-0.3-0.3-0.3-0.5-0.4-0.4-0.1-0.9-0.1-1.3-0.3h-0.1c-0.4-0.3-0.8-0.3-1.3-0.3-0.3 0-0.6 0.1-0.9 0.1-0.3 0-0.5 0.1-0.7 0.3-0.1 0.1-0.2 0.2-0.3 0.2-0.1-0.1-0.1-0.2-0.2-0.3v-0.1c0-0.1-0.1-0.2-0.2-0.1-0.2 0.1-0.4-0.1-0.6-0.2-0.1-0.1-0.3-0.3-0.3-0.5-0.1-0.1-0.2-0.2-0.3-0.2-0.2 0-0.5-0.1-0.7-0.1-0.1 0-0.2 0-0.2-0.1-0.1-0.1-0.2-0.1-0.4-0.1-0.1 0-0.1-0.1-0.2-0.1 0.2 0.2 0.3 0.4 0.4 0.6 0 0.1 0.1 0.1 0.1 0.2 0.1 0.2 0 0.3-0.3 0.3-0.2 0-0.2 0-0.3 0.1 0 0.2 0 0.3 0 0.5 0 0.1 0 0.2-0.2 0.3 0 0-0.1 0-0.1 0.1-0.1 0.1-0.1 0.2 0 0.3 0.3 0.2 0.5 0.3 0.8 0.4 0.3 0 0.3 0.2 0.4 0.4 0.1 0.2 0 0.3-0.1 0.5-0.2 0.2-0.4 0.4-0.6 0.6-0.3 0.1-0.5 0.4-0.8 0.4-0.2 0-0.4-0.1-0.5-0.3-0.1-0.5-0.1-0.9 0.1-1.4 0-0.1 0.1-0.2 0-0.3-0.9 0-0.9-0.2-0.9-0.3 0-0.2 0.1-0.3 0.1-0.5 0.1-0.2 0-0.3-0.3-0.4-0.1 0-0.2 0-0.3 0-0.1 0-0.1-0.1-0.3-0.1 0.2-0.1 0.3-0.1 0.5-0.2-0.1-0.4-0.2-0.7-0.5-0.9-0.1-0.1-0.2-0.2-0.2-0.4 0-0.3-0.2-0.5-0.3-0.7-0.2-0.3-0.6-0.4-0.9-0.4-0.3-0.1-0.5-0.1-0.8-0.2-0.3-0.1-0.6-0.4-0.9-0.5-0.1-0.1-0.2-0.2-0.4-0.3-0.4-0.2-0.7-0.5-1-0.8-0.2-0.1-0.3-0.3-0.5-0.4-0.2-0.2-0.3-0.4-0.5-0.5-0.2-0.2-0.4-0.4-0.7-0.6-0.3-0.2-0.5-0.5-0.8-0.8-0.2-0.3-0.5-0.5-0.8-0.7-0.1 0-0.2 0-0.3 0-0.1 0-0.2 0.1-0.3 0.1-0.3 0.1-0.5 0.3-0.8 0.4 0.1-0.1 0.1-0.1 0-0.3-0.1-0.1-0.2-0.2-0.3-0.2-0.2 0-0.4 0-0.6 0-0.4 0-0.8 0.1-1.2 0.1-0.3 0-0.7 0.1-1 0.2 0.1 0.2 0.1 0.3 0.2 0.5-0.2 0.1-0.4 0.1-0.6 0.1-0.1 0-0.3 0.1-0.4 0.2-0.1 0-0.1 0.1-0.2 0-0.2-0.1-0.4 0-0.6 0.1h-0.1c0 0 0-0.1 0.1-0.1 0.1-0.1 0.2-0.2 0.3-0.3 0.1-0.1 0.2-0.1 0.4-0.2-0.1-0.1-0.1-0.2-0.1-0.2-0.1-0.1-0.2-0.1-0.3 0-0.1 0.1-0.2 0.2-0.3 0.3-0.1 0.1-0.2 0.1-0.3 0-0.1-0.1-0.1-0.2 0-0.3 0-0.1 0.1-0.2 0.2-0.3 0.1-0.1 0.1-0.2 0.2-0.3-0.2-0.2-0.3-0.4-0.5-0.5-0.3-0.2-0.6-0.5-0.8-0.8-0.2-0.4-0.5-0.7-0.9-0.9-0.1-0.1-0.2-0.2-0.3-0.3-0.1-0.1-0.1-0.1-0.2-0.2-0.3 0.1-0.5 0.3-0.8 0.4-0.1 0-0.1 0.1-0.2 0.2-0.1 0.2-0.3 0.2-0.5 0.2-0.1 0-0.2-0.1-0.1-0.2 0.1-0.2 0.2-0.4 0.5-0.3 0 0 0.1 0 0.1-0.1 0.2-0.2 0.4-0.5 0.7-0.7-0.1-0.3-0.3-0.5-0.4-0.7-0.1-0.1-0.1-0.2-0.1-0.4 0-0.1 0-0.1-0.1-0.2 0 0-0.1 0-0.2 0.1-0.1 0.1-0.3 0.2-0.5 0 0-0.1 0-0.2 0.1-0.3l0.1-0.1c0.3-0.1 0.3-0.4 0.3-0.7v-0.1c-0.1-0.2-0.1-0.3 0.1-0.5 0.3-0.2 0.6-0.6 0.7-0.9 0.1-0.2 0.3-0.3 0.5-0.5 0.2-0.2 0.4-0.4 0.5-0.7h0.1c0.4 0.1 0.5-0.2 0.7-0.5 0-0.1 0-0.2 0.1-0.2 0.2-0.2 0.2-0.4 0.1-0.7 0-0.1-0.1-0.3-0.1-0.4 0-0.1 0-0.1-0.1-0.2-0.3-0.2-0.3-0.4 0-0.6 0.2-0.1 0.2-0.3 0.3-0.4 0.1-0.2 0.1-0.4 0.1-0.7-0.1-0.3-0.1-0.7-0.2-1-0.1-0.4-0.2-0.9-0.3-1.3 0-0.1 0-0.1 0-0.2 0-0.3 0-0.5-0.1-0.8-0.1-0.1-0.1-0.3-0.1-0.4-0.1-0.3-0.2-0.5-0.5-0.6-0.3-0.2-0.7-0.3-1-0.5-0.1-0.1-0.2 0-0.3 0.1-0.1 0.2-0.3 0.4-0.4 0.6-0.1 0.1-0.2 0.3-0.3 0.5-0.2 0.2-0.6 0.4-0.9 0.1-0.1-0.2-0.2-0.3 0-0.5 0.2-0.3 0.4-0.6 0.7-0.8 0.1-0.1 0.2-0.3 0.3-0.4 0.1-0.2 0.1-0.4 0.1-0.6-0.1-0.4-0.2-0.8-0.2-1.3 0-0.5 0-0.9 0.1-1.4 0.1-0.2 0.1-0.5 0.2-0.7 0-0.1 0.1-0.3 0.2-0.4 0.2-0.2 0.4-0.4 0.5-0.7 0.1-0.3 0.3-0.6 0.3-0.9 0-0.1 0.1-0.2 0.1-0.3 0-0.1 0.1-0.3 0.1-0.4-0.1-0.3 0-0.5 0.1-0.7 0.1-0.2 0.2-0.5 0.3-0.7 0.2-0.4 0.2-0.9 0.6-1.3 0.1-0.2 0.2-0.4 0.3-0.6 0.1-0.4 0.3-0.7 0.5-1 0.1-0.1 0.1-0.1 0.1-0.2 0.1-0.3 0.3-0.6 0.5-0.9 0.2-0.3 0.2-0.6 0.3-0.9 0-0.1 0-0.2 0.1-0.3 0.3-0.3 0.2-0.7 0.1-1.1-0.2-0.5-0.3-1-0.2-1.5 0-0.1 0-0.2 0.1-0.2 0.1-0.2 0.1-0.3 0.2-0.5v-0.1c0.2-0.2 0.4-0.5 0.7-0.6 0.4-0.2 0.8-0.3 1.3-0.4 0.4 0 0.8-0.2 1.1-0.6 0-0.1 0.1-0.1 0.2-0.2l0.1-0.1c0.1-0.2 0.2-0.3 0.3-0.4 0.2-0.2 0.4-0.5 0.6-0.7 0.2-0.2 0.4-0.5 0.7-0.8l0.1-0.1c0.2-0.2 0.4-0.4 0.6-0.5 0.2-0.2 0.4-0.4 0.6-0.6 0.2-0.2 0.3-0.4 0.5-0.6 0.2-0.1 0.4-0.3 0.6-0.5 0.2-0.2 0.4-0.4 0.5-0.5 0.2-0.2 0.5-0.4 0.7-0.5 0.2-0.1 0.4-0.2 0.5-0.5 0.1-0.3 0.2-0.5 0.3-0.8 0-0.2 0.1-0.4 0.2-0.6 0.1 0 0.2 0 0.4-0.1-0.1-0.1-0.2-0.1-0.2-0.2 0-0.1 0.1-0.2 0.1-0.2 0-0.1 0.1-0.2 0.1-0.3 0 0 0.1 0 0.1-0.1 0 0 0.1 0 0.1-0.1-0.2 0.1-0.3 0-0.4-0.1 0.1 0.1 0.2 0.1 0.4 0.2 0 0 0.1 0 0.1-0.1 0-0.1 0-0.2 0-0.2 0 0-0.1 0-0.2 0-0.1 0-0.2 0.1-0.3 0.1zM54 70.5c0-0.1-0.1-0.1-0.1-0.2-0.1-0.2 0-0.3 0.1-0.4 0.1-0.1 0.2-0.1 0.4-0.1 0.2 0.1 0.3 0.2 0.3 0.4 0 0.1 0 0.3 0 0.4 0.1 0.4 0.1 0.4 0.5 0.4 0.2 0 0.4 0 0.6 0 0.4-0.1 0.8-0.3 1.2-0.4 0.4-0.1 0.8-0.2 1.2-0.3 0.1 0 0.2 0 0.4 0 0.4 0.1 0.7 0 1-0.2 0.1-0.1 0.3-0.1 0.4-0.2 0.2-0.1 0.4-0.1 0.6-0.2 0.5-0.3 1-0.5 1.4-0.8 0.3-0.2 0.6-0.4 0.9-0.6 0.3-0.2 0.6-0.4 0.9-0.6 0.2-0.1 0.5-0.3 0.7-0.5 0.4-0.3 0.7-0.6 1.1-0.8 0.2-0.1 0.3-0.2 0.4-0.3 0.2-0.1 0.3-0.3 0.5-0.4 0.1-0.1 0.2-0.2 0.4-0.3 0.1-0.1 0.1-0.1 0.1-0.2 0.3-0.2 0.6-0.6 0.8-0.9 0.2-0.2 0.4-0.4 0.6-0.7 0.3-0.3 0.5-0.7 0.8-1.1 0.2-0.2 0.4-0.5 0.5-0.7 0.2-0.4 0.4-0.8 0.7-1.1v-0.1c0.2-0.4 0.4-0.8 0.6-1.2 0.3-0.5 0.5-1.1 0.8-1.6 0.1-0.2 0.2-0.4 0.2-0.6 0.2-0.4 0.3-0.8 0.4-1.2 0-0.1 0-0.1 0.1-0.2 0.3-0.6 0.5-1.2 0.6-1.9 0.1-0.4 0.2-0.8 0.3-1.2 0.2-0.6 0.2-1.1 0.3-1.7 0.1-0.4 0.1-0.9 0.1-1.3 0.1-0.6 0.1-1.3 0-1.9 0-0.5-0.1-1.1-0.1-1.6 0-0.5-0.1-0.9-0.2-1.4-0.1-0.5-0.2-0.9-0.3-1.4-0.2-0.4-0.3-0.8-0.4-1.3-0.1-0.4-0.3-0.7-0.3-1.1 0-0.3-0.1-0.6-0.4-0.7-0.3-0.1-0.5-0.2-0.8-0.4-0.6-0.4-0.9-0.9-0.8-1.5 0-0.3 0.1-0.7 0.2-1 0.1-0.3 0.2-0.6 0-0.8-0.1-0.3-0.3-0.5-0.4-0.7-0.2-0.3-0.3-0.5-0.5-0.7-0.2-0.4-0.4-0.8-0.7-1.1-0.4-0.5-0.7-1-1.2-1.4l-0.1-0.1c-0.3-0.4-0.6-0.8-1-1.1-0.2-0.2-0.4-0.4-0.6-0.5-0.1-0.1-0.2-0.2-0.4-0.3-0.3-0.2-0.6-0.3-0.8-0.5-0.3-0.3-0.7-0.5-1-0.7 0 0-0.1 0-0.1-0.1-0.4-0.2-0.7-0.3-1.1-0.5-0.4-0.2-0.8-0.3-1.2-0.3-0.1 0-0.1 0-0.2 0-0.1-0.1-0.3-0.1-0.4-0.1-0.1 0-0.1 0-0.2 0-0.2-0.1-0.5 0-0.7 0-0.4 0.1-0.8 0.1-1.2-0.1-0.5-0.2-0.9-0.4-1.3-0.6-0.3-0.2-0.5-0.4-0.8-0.6-0.6-0.5-1.2-1.1-1.9-1.6 0.1-0.5-0.1-0.6-0.5-0.6-0.2 0-0.4 0.1-0.6 0.2-0.1 0.1-0.1 0.1-0.2 0.2-0.3 0.2-0.5 0.5-0.8 0.7-0.5 0.3-0.7 0.2-1.1 0-0.1-0.1-0.2-0.2-0.3-0.3-0.2-0.2-0.4-0.5-0.5-0.7-0.2-0.4-0.6-0.4-1-0.4-0.2 0-0.5 0.1-0.7 0.1-0.4 0-0.8 0.2-1 0.5-0.2 0.3-0.4 0.6-0.7 0.9-0.1 0.1-0.3 0.2-0.4 0.4-0.2 0.2-0.4 0.2-0.6 0-0.1-0.1-0.2-0.1-0.3-0.2-0.1 0.1-0.2 0.2-0.2 0.3-0.1 0.2-0.2 0.4-0.3 0.7-0.1 0.3-0.3 0.6-0.5 0.8-0.1 0.1-0.1 0.1-0.2 0.2-0.1 0.2-0.4 0.3-0.6 0.3-0.2 0.2-0.4 0.5-0.5 0.7-0.1 0.2-0.2 0.4-0.3 0.7-0.1 0.1-0.1 0.3-0.2 0.4-0.1 0.2-0.1 0.3-0.1 0.5 0.1 0.3-0.1 0.4-0.4 0.5-0.2 0-0.2 0-0.3 0.2 0 0.3 0.1 0.5 0.2 0.8 0.1 0.1 0.2 0.3 0.2 0.4 0 0.2 0.1 0.3 0.3 0.4 0.1 0.1 0.2 0.2 0.3 0.2 0.1 0 0.1 0.1 0.2 0.1 0.1 0.1 0.2 0 0.2-0.1 0.1-0.3 0.2-0.6 0.2-0.9 0.1-0.4 0.1-0.7 0.2-1.1 0.1-0.2 0.2-0.3 0.3-0.4 0 0 0.1 0 0.2 0v0.1c-0.1 0.5-0.3 1.1-0.4 1.6-0.1 0.2-0.1 0.4-0.2 0.6 0 0.1-0.1 0.2-0.2 0.2-0.2 0.1-0.4 0.2-0.6 0.2-0.1 0-0.2 0-0.3 0-0.2-0.1-0.4-0.3-0.6-0.4-0.1-0.1-0.2-0.2-0.3-0.3-0.1-0.2-0.2-0.4-0.3-0.6-0.1-0.2-0.2-0.3-0.4-0.4-0.1-0.1-0.2-0.1-0.3-0.2-0.2-0.2-0.4-0.3-0.7-0.3-0.1 0-0.3 0-0.4 0-0.1 0-0.3 0.1-0.4 0.2-0.2 0.1-0.3 0.1-0.5 0-0.5-0.2-1-0.1-1.5 0.1-0.2 0.1-0.4 0.2-0.6 0.2-0.5 0-0.9 0-1.4 0-0.5 0-0.9-0.1-1.4-0.2-0.2 0-0.4 0-0.6 0-0.4 0.1-0.5 0.4-0.4 0.8 0.1 0.4 0.2 0.9 0.2 1.3 0 0.3 0 0.6 0 0.9 0 0.2 0 0.3 0 0.5 0 0.3-0.1 0.6-0.1 0.9-0.1 0.6-0.4 1.1-0.8 1.5-0.3 0.3-0.7 0.6-1.1 0.7-0.2 0.1-0.4 0.2-0.7 0.3-0.5 0.2-0.9 0.6-1.2 1.1-0.1 0.2-0.2 0.4-0.3 0.6-0.2 0.3-0.3 0.5-0.5 0.8-0.1 0.2-0.3 0.4-0.4 0.6-0.1 0.2-0.3 0.3-0.3 0.5-0.2 0.4-0.3 0.8-0.5 1.2-0.1 0.2-0.1 0.5-0.2 0.7-0.2 0.4-0.2 0.8-0.2 1.3 0 0.1 0 0.2 0 0.4 0 0.5-0.1 1.1-0.1 1.6 0 0.5 0 1 0.1 1.5 0 0.2 0 0.5 0 0.7 0 0.4 0.1 0.9 0.1 1.3 0 0.4 0 0.9 0.2 1.3v0.1c0.1 0.4 0.1 0.8 0.2 1.2 0 0.1 0 0.2 0.1 0.3 0.2 0.6 0.3 1.1 0.5 1.7 0.1 0.4 0.3 0.8 0.4 1.2 0.1 0.4 0.5 0.8 0.6 1.3v0c0.3 0.6 0.6 1.2 1 1.8 0.1 0.2 0.3 0.4 0.4 0.6 0.2 0.3 0.3 0.6 0.5 0.8 0.1 0.2 0.3 0.4 0.4 0.5 0.1 0.2 0.2 0.4 0.4 0.6 0.2 0.2 0.4 0.5 0.6 0.7 0.3 0.5 0.7 0.9 1.1 1.2 0.2 0.2 0.4 0.3 0.6 0.5 0.1 0.1 0.2 0.1 0.2 0.2 0.1 0.1 0.2 0.2 0.4 0.3 0.8 0.4 1.4 1 2.1 1.6 0.3 0.3 0.6 0.6 1 0.8 0.4 0.3 0.7 0.6 1.2 0.7 0 0 0.1 0 0.1 0.1 0.2 0.2 0.5 0.3 0.7 0.4 0.4 0.2 0.9 0.4 1.3 0.6 0.1 0.1 0.3 0.1 0.4 0.2 0.3 0.1 0.6 0.2 0.9 0.3 0.3 0.1 0.5 0.2 0.8 0.2h0.1c0.2 0.1 0.3 0.1 0.5 0 0.1 0 0.2 0 0.2 0.1 0 0.1 0.1 0.1 0.2 0.1 0.1 0 0.2 0 0.4 0 0.1-0.1 0.1-0.2 0.2-0.4 0.1 0.1 0.2 0.1 0.2 0.1 0.1 0.2 0.3 0.2 0.5 0.2h0.1c0.2 0 0.3 0 0.4-0.1 0-0.1 0.2-0.1 0.3-0.1 0.3 0.1 0.6 0.1 0.9 0.2 0.2 0.1 0.5 0.1 0.6-0.1 0.1-0.1 0.2-0.2 0.4-0.1 0.2 0.1 0.3 0.1 0.5 0 0.1 0 0.2 0 0.2 0 0.3 0.1 0.5 0.1 0.8 0.2 0.4 0.1 0.4 0.1 0.7-0.2 0.1-0.1 0.3-0.1 0.4 0 0.1 0.2 0.1 0.3 0.1 0.5 0.1 0 0.1 0 0.2-0.1 0-0.2 0.1-0.2 0.3-0.3 0.1 0.1 0.1 0.1 0.2 0.1 0.2 0.2 0.3 0.2 0.4-0.1 0-0.1 0-0.2 0.1-0.2 0.1 0 0.2 0.1 0.2 0.1 0.1 0.2 0.3 0.3 0.4 0.5 0.2 0.2 0.5 0.2 0.6 0 0.1-0.1 0.2-0.1 0.3-0.1 0-0.1 0-0.2 0-0.3 0.3 0.2 0.2 0.2 0.1 0.2zM37.4 23.8c0.3 0.1 0.5 0.1 0.6-0.1-0.2 0.1-0.4-0.1-0.6 0.1z" fill="#ffffff" fill-rule="nonzero" stroke="none" stroke-width="1" stroke-linecap="butt" stroke-linejoin="miter" stroke-miterlimit="10" stroke-dasharray="" stroke-dashoffset="0" font-family="none" font-weight="none" font-size="none" text-anchor="none" style="mix-blend-mode: normal" data-fill-palette-color="tertiary"></path></g><g transform="matrix(1,0,0,1,64,127.59381332919736)"><svg viewBox="0 0 192 104.81237334160528" height="104.81237334160528" width="192"><g><svg viewBox="0 0 192 104.81237334160528" height="104.81237334160528" width="192"><g><svg viewBox="0 0 192 104.81237334160528" height="104.81237334160528" width="192"><g transform="matrix(1,0,0,1,0,64.77825158898798)"><svg viewBox="0 0 192 40.034121752617295" height="40.034121752617295" width="192"><g id="textblocktransform"><svg viewBox="0 0 192 40.034121752617295" height="40.034121752617295" width="192" id="textblock"><g><svg viewBox="0 0 192 40.034121752617295" height="40.034121752617295" width="192"><g transform="matrix(1,0,0,1,0,0)"><svg width="192" viewBox="-1.46 -39.5 251.83 52.51" height="40.034121752617295" data-palette-color="#f9d1d1"><path d="M12.16-35.01L12.16-35.01Q12.16-34.08 11.8-33.25 11.45-32.42 10.84-31.81 10.23-31.2 9.41-30.85 8.59-30.49 7.67-30.49L7.67-30.49Q6.74-30.49 5.91-30.85 5.08-31.2 4.47-31.81 3.86-32.42 3.5-33.25 3.15-34.08 3.15-35.01L3.15-35.01Q3.15-35.94 3.5-36.76 3.86-37.57 4.47-38.18 5.08-38.79 5.91-39.15 6.74-39.5 7.67-39.5L7.67-39.5Q8.59-39.5 9.41-39.15 10.23-38.79 10.84-38.18 11.45-37.57 11.8-36.76 12.16-35.94 12.16-35.01ZM11.79-28.2L11.79-8.15Q11.79-5.25 11.06-2.26 10.33 0.73 9 3.53 7.67 6.32 5.82 8.78 3.98 11.23 1.76 13.01L1.76 13.01-1.46 11.06Q-0.22 9.35 0.71 7.19 1.64 5.03 2.26 2.71 2.88 0.39 3.2-1.97 3.52-4.32 3.52-6.45L3.52-6.45 3.52-28.2 11.79-28.2ZM17.14-12.06L17.14-12.06Q17.14-13.99 17.47-16.06 17.8-18.14 18.42-20.21 19.04-22.29 19.92-24.32 20.8-26.34 21.9-28.2L21.9-28.2 27.93-28.2Q27.32-26.37 26.84-24.38 26.36-22.39 26.04-20.4 25.71-18.41 25.52-16.5 25.34-14.6 25.34-12.96L25.34-12.96Q25.34-12.01 25.42-10.93 25.51-9.84 25.73-8.75 25.95-7.67 26.35-6.67 26.76-5.66 27.39-4.9 28.02-4.13 28.94-3.67 29.86-3.22 31.1-3.22L31.1-3.22Q32.32-3.22 33.29-3.77 34.25-4.32 34.98-5.21 35.72-6.1 36.23-7.25 36.74-8.4 37.07-9.61 37.4-10.82 37.56-11.98 37.72-13.13 37.72-14.06L37.72-14.06 37.72-28.2 45.97-28.2 45.97 0 42.8 0 39.01-6.57Q38.3-4.93 37.29-3.6 36.28-2.27 34.98-1.32 33.69-0.37 32.11 0.15 30.54 0.66 28.71 0.66L28.71 0.66Q25.78 0.66 23.61-0.29 21.43-1.25 19.99-2.93 18.55-4.61 17.84-6.95 17.14-9.28 17.14-12.06ZM61.52-35.01L61.52-35.01Q61.52-34.08 61.16-33.25 60.81-32.42 60.2-31.81 59.59-31.2 58.76-30.85 57.93-30.49 57-30.49L57-30.49Q56.07-30.49 55.26-30.85 54.44-31.2 53.83-31.81 53.22-32.42 52.86-33.25 52.51-34.08 52.51-35.01L52.51-35.01Q52.51-35.94 52.86-36.76 53.22-37.57 53.83-38.18 54.44-38.79 55.26-39.15 56.07-39.5 57-39.5L57-39.5Q57.93-39.5 58.76-39.15 59.59-38.79 60.2-38.18 60.81-37.57 61.16-36.76 61.52-35.94 61.52-35.01ZM61.15-28.17L61.15 0 52.88 0 52.88-28.17 61.15-28.17ZM94.08-21.22L94.08-21.22 90.52-19.8Q89.67-22.49 87.66-23.93 85.66-25.37 82.85-25.37L82.85-25.37Q81.34-25.37 80.16-24.89 78.97-24.41 78.08-23.58 77.19-22.75 76.57-21.66 75.94-20.56 75.55-19.31 75.16-18.07 74.99-16.74 74.82-15.41 74.82-14.16L74.82-14.16Q74.82-12.82 74.97-11.45 75.11-10.08 75.47-8.83 75.82-7.57 76.41-6.48 76.99-5.4 77.89-4.59 78.78-3.78 80.01-3.32 81.24-2.86 82.85-2.86L82.85-2.86Q84.15-2.86 85.32-3.25 86.49-3.64 87.47-4.35 88.44-5.05 89.2-6.03 89.96-7.01 90.4-8.2L90.4-8.2 93.99-6.88Q93.18-4.96 91.85-3.55 90.52-2.15 88.84-1.23 87.15-0.32 85.22 0.12 83.29 0.56 81.32 0.56L81.32 0.56Q78.12 0.56 75.38-0.52 72.65-1.61 70.66-3.58 68.67-5.54 67.55-8.24 66.42-10.94 66.42-14.16L66.42-14.16Q66.42-17.41 67.53-20.12 68.64-22.83 70.62-24.78 72.6-26.73 75.33-27.81 78.07-28.88 81.32-28.88L81.32-28.88Q83.37-28.88 85.32-28.43 87.27-27.98 88.95-27.04 90.62-26.1 91.95-24.66 93.28-23.22 94.08-21.22ZM105.75-13.38L105.75-13.38Q107.27-13.04 108.78-12.84 110.29-12.65 111.83-12.65L111.83-12.65Q113.44-12.65 114.82-12.95 116.2-13.26 117.21-13.98 118.23-14.7 118.81-15.89 119.4-17.09 119.4-18.87L119.4-18.87Q119.4-20.31 119.01-21.51 118.62-22.71 117.85-23.56 117.08-24.41 115.96-24.89 114.83-25.37 113.34-25.37L113.34-25.37Q111.95-25.37 110.84-24.85 109.73-24.34 108.89-23.47 108.05-22.61 107.45-21.46 106.85-20.31 106.46-19.07 106.07-17.82 105.9-16.55 105.73-15.28 105.73-14.16L105.73-14.16Q105.73-13.96 105.73-13.77 105.73-13.57 105.75-13.38ZM126.09-18.95L126.09-18.95Q126.09-17.21 125.53-15.86 124.97-14.5 124-13.48 123.04-12.45 121.77-11.74 120.5-11.04 119.06-10.58 117.62-10.13 116.09-9.94 114.57-9.74 113.12-9.74L113.12-9.74Q111.29-9.74 109.51-10 107.73-10.25 106-10.82L106-10.82Q106.26-9.2 106.85-7.75 107.44-6.3 108.41-5.21 109.39-4.13 110.82-3.49 112.25-2.86 114.2-2.86L114.2-2.86Q115.49-2.86 116.66-3.25 117.84-3.64 118.81-4.35 119.79-5.05 120.53-6.03 121.28-7.01 121.74-8.2L121.74-8.2 125.31-6.88Q124.5-4.96 123.1-3.55 121.69-2.15 119.92-1.23 118.15-0.32 116.16 0.12 114.17 0.56 112.22 0.56L112.22 0.56Q109 0.56 106.26-0.52 103.53-1.61 101.55-3.56 99.57-5.52 98.45-8.23 97.33-10.94 97.33-14.16L97.33-14.16Q97.33-17.38 98.45-20.09 99.57-22.8 101.55-24.76 103.53-26.71 106.26-27.8 109-28.88 112.22-28.88L112.22-28.88Q113.78-28.88 115.42-28.66 117.06-28.44 118.59-27.97 120.13-27.49 121.5-26.73 122.87-25.98 123.88-24.87 124.89-23.75 125.49-22.29 126.09-20.83 126.09-18.95ZM155.51-9.01L155.51-9.01Q155.51-7.15 154.97-5.71 154.43-4.27 153.5-3.21 152.58-2.15 151.31-1.43 150.04-0.71 148.58-0.27 147.13 0.17 145.54 0.37 143.96 0.56 142.39 0.56L142.39 0.56Q140.3 0.56 138.68 0.29 137.07 0.02 135.61-0.57 134.14-1.17 132.69-2.12 131.24-3.08 129.46-4.44L129.46-4.44 134.26-8.37Q134.92-7.13 136.01-6.12 137.1-5.1 138.27-4.37 139.44-3.64 140.54-3.25 141.64-2.86 142.32-2.86L142.32-2.86Q142.88-2.86 143.59-2.89 144.3-2.93 145.03-3.04 145.76-3.15 146.47-3.37 147.18-3.59 147.73-3.97 148.28-4.35 148.61-4.92 148.94-5.49 148.94-6.3L148.94-6.3Q148.94-7.13 148.51-7.75 148.08-8.37 147.4-8.84 146.72-9.3 145.84-9.62 144.96-9.94 144.07-10.18 143.18-10.42 142.35-10.61 141.52-10.79 140.91-10.96L140.91-10.96Q139.78-11.28 138.54-11.61 137.29-11.94 136.07-12.37 134.85-12.79 133.74-13.38 132.63-13.96 131.79-14.78 130.94-15.6 130.44-16.71 129.94-17.82 129.94-19.31L129.94-19.31Q129.94-22.05 131.03-23.89 132.12-25.73 133.9-26.84 135.68-27.95 137.95-28.42 140.22-28.88 142.57-28.88L142.57-28.88Q144.18-28.88 145.96-28.55 147.74-28.22 149.43-27.58 151.11-26.93 152.58-26 154.04-25.07 155.02-23.88L155.02-23.88 150.21-19.92Q149.67-21.39 148.8-22.44 147.94-23.49 146.92-24.16 145.91-24.83 144.85-25.15 143.79-25.46 142.88-25.46L142.88-25.46Q142-25.46 140.91-25.39 139.81-25.32 138.84-24.98 137.88-24.63 137.21-23.94 136.54-23.24 136.54-22.02L136.54-22.02Q136.54-21.14 136.94-20.52 137.34-19.9 138-19.45 138.66-18.99 139.5-18.69 140.34-18.38 141.22-18.15 142.1-17.92 142.93-17.75 143.76-17.58 144.42-17.38L144.42-17.38Q145.54-17.07 146.8-16.74 148.06-16.41 149.28-15.98 150.5-15.55 151.64-14.98 152.77-14.4 153.63-13.57 154.48-12.74 154.99-11.63 155.51-10.52 155.51-9.01ZM183.53-35.01L183.53-35.01Q183.53-34.08 183.17-33.25 182.82-32.42 182.21-31.81 181.6-31.2 180.77-30.85 179.94-30.49 179.01-30.49L179.01-30.49Q178.08-30.49 177.27-30.85 176.45-31.2 175.84-31.81 175.23-32.42 174.87-33.25 174.52-34.08 174.52-35.01L174.52-35.01Q174.52-35.94 174.87-36.76 175.23-37.57 175.84-38.18 176.45-38.79 177.27-39.15 178.08-39.5 179.01-39.5L179.01-39.5Q179.94-39.5 180.77-39.15 181.6-38.79 182.21-38.18 182.82-37.57 183.17-36.76 183.53-35.94 183.53-35.01ZM183.16-28.17L183.16 0 174.88 0 174.88-28.17 183.16-28.17ZM218.9-16.16L218.9-16.16Q218.9-13.31 218.21-10.21 217.51-7.1 216.26-4.13 215.02-1.15 213.29 1.48 211.55 4.1 209.48 6.01L209.48 6.01 206.38 4.32Q207.04 3.1 207.62 1.59 208.21 0.07 208.68-1.62 209.16-3.32 209.54-5.13 209.92-6.93 210.17-8.7 210.43-10.47 210.56-12.15 210.7-13.82 210.7-15.26L210.7-15.26Q210.7-16.21 210.62-17.3 210.55-18.38 210.32-19.47 210.09-20.56 209.7-21.56 209.31-22.56 208.66-23.32 208.01-24.07 207.1-24.54 206.18-25 204.94-25L204.94-25Q203.72-25 202.76-24.45 201.81-23.9 201.08-23.01 200.35-22.12 199.82-20.97 199.3-19.82 198.97-18.62 198.64-17.41 198.49-16.24 198.34-15.06 198.34-14.14L198.34-14.14 198.34 0 190.07 0 190.07-28.2 193.24-28.2 197.03-21.63Q197.71-23.27 198.73-24.61 199.76-25.95 201.05-26.9 202.35-27.86 203.92-28.37 205.5-28.88 207.33-28.88L207.33-28.88Q210.26-28.88 212.43-27.93 214.6-26.98 216.04-25.28 217.48-23.58 218.19-21.25 218.9-18.92 218.9-16.16ZM250.37-21.22L250.37-21.22 246.8-19.8Q245.95-22.49 243.95-23.93 241.95-25.37 239.14-25.37L239.14-25.37Q237.62-25.37 236.44-24.89 235.26-24.41 234.36-23.58 233.47-22.75 232.85-21.66 232.23-20.56 231.84-19.31 231.45-18.07 231.28-16.74 231.11-15.41 231.11-14.16L231.11-14.16Q231.11-12.82 231.25-11.45 231.4-10.08 231.75-8.83 232.11-7.57 232.69-6.48 233.28-5.4 234.17-4.59 235.06-3.78 236.29-3.32 237.53-2.86 239.14-2.86L239.14-2.86Q240.43-2.86 241.6-3.25 242.78-3.64 243.75-4.35 244.73-5.05 245.49-6.03 246.24-7.01 246.68-8.2L246.68-8.2 250.27-6.88Q249.46-4.96 248.13-3.55 246.8-2.15 245.12-1.23 243.43-0.32 241.51 0.12 239.58 0.56 237.6 0.56L237.6 0.56Q234.4 0.56 231.67-0.52 228.93-1.61 226.94-3.58 224.95-5.54 223.83-8.24 222.71-10.94 222.71-14.16L222.71-14.16Q222.71-17.41 223.82-20.12 224.93-22.83 226.91-24.78 228.88-26.73 231.62-27.81 234.35-28.88 237.6-28.88L237.6-28.88Q239.65-28.88 241.6-28.43 243.56-27.98 245.23-27.04 246.9-26.1 248.23-24.66 249.56-23.22 250.37-21.22Z" opacity="1" transform="matrix(1,0,0,1,0,0)" fill="#ffffff" class="wordmark-text-0" data-fill-palette-color="primary" id="text-0"></path></svg></g></svg></g></svg></g></svg></g><g transform="matrix(1,0,0,1,80.30011317896137,0)"><svg viewBox="0 0 31.39977364207727 55.32715626211711" height="55.32715626211711" width="31.39977364207727"><g><svg xmlns="http://www.w3.org/2000/svg" xmlns:xlink="http://www.w3.org/1999/xlink" version="1.1" x="0" y="0" viewBox="50.5 -20.424999999999997 49.900000000000006 87.925" style="enable-background:new 26 -26 100 100;" xml:space="preserve" height="55.32715626211711" width="31.39977364207727" class="icon-icon-0" data-fill-palette-color="accent" id="icon-0"><path d="M95.1 63.4C95.1 65.7 93.3 67.5 91 67.5H66C63.8 67.5 61.9 65.7 61.9 63.4L58.1 22.4C60.6 23.7 63.5 24.5 66.5 24.5 76.4 24.5 84.5 16.4 84.5 6.5H98.4V5.9C98.4 2.8 97.9 1.5 94.3 1.5H83.7C83.5 0.8 83.3 0.1 83-0.5H95C98-0.5 100.4 1.9 100.4 5zM65.5 48.5C66.1 48.5 66.5 48 66.5 47.5 66.5 46.9 66.1 46.5 65.5 46.5S64.5 47 64.5 47.5C64.5 48.1 65 48.5 65.5 48.5M65.5 33.5C64.4 33.5 63.5 34.4 63.5 35.5S64.4 37.5 65.5 37.5 67.5 36.6 67.5 35.5 66.6 33.5 65.5 33.5M71.5 61.5C70.9 61.5 70.5 62 70.5 62.5 70.5 63.1 70.9 63.5 71.5 63.5S72.5 63 72.5 62.5C72.5 61.9 72.1 61.5 71.5 61.5M75.5 48.5C74.4 48.5 73.5 49.4 73.5 50.5S74.4 52.5 75.5 52.5 77.5 51.6 77.5 50.5 76.6 48.5 75.5 48.5M79.5 32.5C78.9 32.5 78.5 33 78.5 33.5 78.5 34.1 78.9 34.5 79.5 34.5S80.5 34 80.5 33.5C80.5 32.9 80.1 32.5 79.5 32.5M89.5 61.5C90.6 61.5 91.5 60.6 91.5 59.5S90.6 57.5 89.5 57.5 87.5 58.4 87.5 59.5 88.4 61.5 89.5 61.5M85.5 46.5C84.9 46.5 84.5 47 84.5 47.5 84.5 48.1 84.9 48.5 85.5 48.5S86.5 48 86.5 47.5C86.5 46.9 86.1 46.5 85.5 46.5M89.5 24.5C88.9 24.5 88.5 25 88.5 25.5 88.5 26.1 88.9 26.5 89.5 26.5S90.5 26 90.5 25.5C90.5 24.9 90.1 24.5 89.5 24.5M89.5 35.5C88.4 35.5 87.5 36.4 87.5 37.5S88.4 39.5 89.5 39.5 91.5 38.6 91.5 37.5 90.6 35.5 89.5 35.5M93.5 11.5C92.4 11.5 91.5 12.4 91.5 13.5S92.4 15.5 93.5 15.5 95.5 14.6 95.5 13.5 94.6 11.5 93.5 11.5M98-17.2L94.1-17.6 94.9-19.8C95.1-20.3 95.6-20.5 96.1-20.4L97.9-19.8C98.4-19.6 98.7-19.1 98.5-18.6zM96.1-12.3L92.2-12.7 93.1-15.2 97-14.8zM94.3-7.3L90.4-7.7 91.3-10.2 95.2-9.8zM92.5-2.5H88.5L89.4-5.2 93.3-4.8zM66.5 22.5C57.7 22.5 50.5 15.3 50.5 6.5S57.7-9.5 66.5-9.5 82.5-2.3 82.5 6.5 75.3 22.5 66.5 22.5M66.5-7.5C58.8-7.5 52.5-1.2 52.5 6.5S58.8 20.5 66.5 20.5 80.5 14.2 80.5 6.5 74.2-7.5 66.5-7.5M75.4 14.7C74.7 15.1 74.1 15.4 73.5 14.7 72.5 13.6 68.4 9 67.8 7.9 67.4 7.2 67.6 6.9 68.5 6.8 69.4 6.8 76.1 7.8 77.7 8.1 78.5 8.3 78.6 8.8 78.6 9.6 78.6 11.3 77 13.9 75.4 14.7M77.6 4.9C76.1 5.2 69.8 6.2 68.5 6.2 67.6 6.2 67.4 5.8 67.8 5.1 68.2 4.3 72.5-0.6 73.5-1.7 74-2.3 74.6-2.1 75.4-1.7 77-0.9 78.6 1.7 78.5 3.4 78.5 4.1 78.5 4.7 77.6 4.9M67.2 4.8C66.8 5.5 66.3 5.5 65.9 4.8 65.4 4 63-1.9 62.5-3.3 62.2-4 62.7-4.4 63.5-4.8 65-5.7 68.2-5.7 69.7-4.8 70.4-4.4 71-4.1 70.7-3.3 70.1-1.9 67.8 3.7 67.2 4.8M64.6 6.2C63.3 6.2 57 5.2 55.5 4.9 54.6 4.7 54.6 4.1 54.6 3.3 54.5 1.6 56.1-1 57.7-1.8 58.5-2.2 59-2.4 59.6-1.8 60.6-0.7 64.9 4.3 65.3 5 65.7 5.8 65.5 6.1 64.6 6.2M55.4 8.1C56.9 7.8 63.6 6.8 64.6 6.8 65.4 6.8 65.7 7.2 65.3 7.9 64.7 9 60.6 13.6 59.6 14.7 59 15.4 58.4 15.1 57.7 14.7 56.1 13.9 54.5 11.3 54.6 9.6 54.6 8.8 54.6 8.2 55.4 8.1M65.9 8.2C66.3 7.5 66.8 7.5 67.2 8.2 67.9 9.3 70.1 14.9 70.6 16.3 70.9 17.1 70.3 17.4 69.6 17.8 68.1 18.7 64.9 18.7 63.4 17.8 62.6 17.3 62.2 17 62.4 16.3 62.9 14.9 65.4 9 65.9 8.2" fill="#ffffff" data-fill-palette-color="accent"></path></svg></g></svg></g><g></g></svg></g></svg></g></svg></g></svg></g><defs></defs></svg><rect width="320" height="360" fill="none" stroke="none" visibility="hidden"></rect></g></svg></g></svg>